<?xml version="1.0" encoding="UTF-8"?>
<!DOCTYPE svg PUBLIC "-//W3C//DTD SVG 1.1//EN" "http://www.w3.org/Graphics/SVG/1.1/DTD/svg11.dtd">
<svg xmlns="http://www.w3.org/2000/svg" version="1.1" width="512px" height="512px" style="shape-rendering:geometricPrecision; text-rendering:geometricPrecision; image-rendering:optimizeQuality; fill-rule:evenodd; clip-rule:evenodd" xmlns:xlink="http://www.w3.org/1999/xlink">
<g><path style="opacity:1" fill="#282828" d="M -0.5,-0.5 C 170.167,-0.5 340.833,-0.5 511.5,-0.5C 511.5,170.167 511.5,340.833 511.5,511.5C 340.833,511.5 170.167,511.5 -0.5,511.5C -0.5,340.833 -0.5,170.167 -0.5,-0.5 Z"/></g>
<g><path style="opacity:1" fill="#7dd856" d="M 248.5,63.5 C 252.833,63.5 257.167,63.5 261.5,63.5C 261.334,67.8461 261.501,72.1794 262,76.5C 270.93,81.7155 280.096,86.5489 289.5,91C 311.167,112.667 332.833,134.333 354.5,156C 353.944,156.383 353.611,156.883 353.5,157.5C 352.833,157.5 352.5,157.833 352.5,158.5C 344.51,170.471 336.51,182.471 328.5,194.5C 324.205,195.661 319.871,195.828 315.5,195C 310.956,190.12 306.122,185.62 301,181.5C 283.571,186.399 266.071,191.066 248.5,195.5C 251.48,200.146 255.147,204.146 259.5,207.5C 264.366,213.885 269.699,219.885 275.5,225.5C 301.102,254.942 326.936,284.276 353,313.5C 353.667,314.5 353.667,315.5 353,316.5C 349.298,320.37 345.464,324.037 341.5,327.5C 279.833,327.5 218.167,327.5 156.5,327.5C 159.776,289.192 162.776,250.859 165.5,212.5C 167.101,197.994 168.601,183.327 170,168.5C 196.672,133.798 222.838,98.798 248.5,63.5 Z"/></g>
<g><path style="opacity:1" fill="#0d100c" d="M 248.5,63.5 C 253.305,62.5128 258.305,62.1795 263.5,62.5C 263.173,67.2137 263.507,71.8804 264.5,76.5C 272.833,80.6667 281.167,84.8333 289.5,89C 311.874,111.04 333.874,133.374 355.5,156C 355.164,157.03 354.497,157.53 353.5,157.5C 353.611,156.883 353.944,156.383 354.5,156C 332.833,134.333 311.167,112.667 289.5,91C 280.096,86.5489 270.93,81.7155 262,76.5C 261.501,72.1794 261.334,67.8461 261.5,63.5C 257.167,63.5 252.833,63.5 248.5,63.5 Z"/></g>
<g><path style="opacity:1" fill="#10150d" d="M 352.5,158.5 C 353.525,158.897 353.692,159.563 353,160.5C 345.167,172.167 337.333,183.833 329.5,195.5C 324.533,196.662 319.533,196.829 314.5,196C 310.253,191.246 305.586,187.08 300.5,183.5C 284.01,187.372 267.677,191.705 251.5,196.5C 252,197.5 252.5,198.5 253,199.5C 255.782,201.771 257.949,204.437 259.5,207.5C 255.147,204.146 251.48,200.146 248.5,195.5C 266.071,191.066 283.571,186.399 301,181.5C 306.122,185.62 310.956,190.12 315.5,195C 319.871,195.828 324.205,195.661 328.5,194.5C 336.51,182.471 344.51,170.471 352.5,158.5 Z"/></g>
<g><path style="opacity:1" fill="#0c0f09" d="M 165.5,212.5 C 162.776,250.859 159.776,289.192 156.5,327.5C 166.833,328.167 177.167,328.833 187.5,329.5C 184.714,329.956 183.381,331.623 183.5,334.5C 183.45,337.574 184.783,339.741 187.5,341C 232.5,341.667 277.5,341.667 322.5,341C 327.038,339.336 328.538,336.169 327,331.5C 326.184,330.177 325.017,329.511 323.5,329.5C 329.5,328.833 335.5,328.167 341.5,327.5C 345.464,324.037 349.298,320.37 353,316.5C 353.667,315.5 353.667,314.5 353,313.5C 326.936,284.276 301.102,254.942 275.5,225.5C 302.425,254.268 328.925,283.601 355,313.5C 355.667,314.5 355.667,315.5 355,316.5C 350.833,320.667 346.667,324.833 342.5,329C 337.5,329.333 332.5,329.667 327.5,330C 330.259,334.059 329.925,337.892 326.5,341.5C 331.587,351.627 328.254,356.46 316.5,356C 325.586,362.415 334.086,369.582 342,377.5C 342.684,379.479 342.184,381.146 340.5,382.5C 340.808,383.308 341.308,383.975 342,384.5C 342.817,396.217 342.65,406.55 341.5,415.5C 341.666,405.828 341.5,396.161 341,386.5C 340.125,383.785 338.292,382.452 335.5,382.5C 336.833,381.833 338.167,381.167 339.5,380.5C 341.028,380.483 341.528,379.816 341,378.5C 332.627,369.448 323.127,361.948 312.5,356C 273.792,355.179 235.125,355.346 196.5,356.5C 192.573,355.862 188.573,355.029 184.5,354C 182.078,351.997 181.245,349.497 182,346.5C 182.232,347.737 182.732,348.737 183.5,349.5C 183.916,351.752 185.249,353.252 187.5,354C 232.833,354.667 278.167,354.667 323.5,354C 327.213,352.309 328.379,349.475 327,345.5C 326.5,344.333 325.667,343.5 324.5,343C 277.792,342.177 231.126,342.343 184.5,343.5C 183.911,340.496 182.911,337.663 181.5,335C 181.615,333.105 182.282,331.438 183.5,330C 174.173,329.5 164.839,329.334 155.5,329.5C 157.843,289.699 161.176,250.699 165.5,212.5 Z"/></g>
<g><path style="opacity:1" fill="#78d053" d="M 187.5,329.5 C 232.833,329.5 278.167,329.5 323.5,329.5C 325.017,329.511 326.184,330.177 327,331.5C 328.538,336.169 327.038,339.336 322.5,341C 277.5,341.667 232.5,341.667 187.5,341C 184.783,339.741 183.45,337.574 183.5,334.5C 183.381,331.623 184.714,329.956 187.5,329.5 Z"/></g>
<g><path style="opacity:1" fill="#1c3113" d="M 156.5,327.5 C 218.167,327.5 279.833,327.5 341.5,327.5C 335.5,328.167 329.5,328.833 323.5,329.5C 278.167,329.5 232.833,329.5 187.5,329.5C 177.167,328.833 166.833,328.167 156.5,327.5 Z"/></g>
<g><path style="opacity:1" fill="#79d154" d="M 183.5,349.5 C 183.517,347.435 183.85,345.435 184.5,343.5C 231.126,342.343 277.792,342.177 324.5,343C 325.667,343.5 326.5,344.333 327,345.5C 328.379,349.475 327.213,352.309 323.5,354C 278.167,354.667 232.833,354.667 187.5,354C 185.249,353.252 183.916,351.752 183.5,349.5 Z"/></g>
<g><path style="opacity:1" fill="#7dd856" d="M 339.5,380.5 C 283.5,380.5 227.5,380.5 171.5,380.5C 169.972,380.483 169.472,379.816 170,378.5C 178.171,370.144 187.004,362.811 196.5,356.5C 235.125,355.346 273.792,355.179 312.5,356C 323.127,361.948 332.627,369.448 341,378.5C 341.528,379.816 341.028,380.483 339.5,380.5 Z"/></g>
<g><path style="opacity:1" fill="#1f3515" d="M 171.5,380.5 C 227.5,380.5 283.5,380.5 339.5,380.5C 338.167,381.167 336.833,381.833 335.5,382.5C 282.167,382.5 228.833,382.5 175.5,382.5C 174.167,381.833 172.833,381.167 171.5,380.5 Z"/></g>
<g><path style="opacity:1" fill="#7dd856" d="M 175.5,382.5 C 228.833,382.5 282.167,382.5 335.5,382.5C 338.292,382.452 340.125,383.785 341,386.5C 341.5,396.161 341.666,405.828 341.5,415.5C 340.407,417.349 339.074,419.016 337.5,420.5C 282.832,420.667 228.166,420.5 173.5,420C 172.584,419.722 171.918,419.222 171.5,418.5C 171.013,417.527 170.513,416.527 170,415.5C 169.333,405.833 169.333,396.167 170,386.5C 170.875,383.785 172.708,382.452 175.5,382.5 Z"/></g>
<g><path style="opacity:1" fill="#000100" d="M 171.5,418.5 C 171.918,419.222 172.584,419.722 173.5,420C 228.166,420.5 282.832,420.667 337.5,420.5C 342.927,420.134 346.927,420.467 349.5,421.5C 286.095,421.171 222.762,421.504 159.5,422.5C 158.262,422.19 158.262,421.69 159.5,421C 163.81,420.993 167.81,420.159 171.5,418.5 Z"/></g>
<g><path style="opacity:1" fill="#79d153" d="M 349.5,421.5 C 351.349,422.593 353.016,423.926 354.5,425.5C 354.666,431.509 354.499,437.509 354,443.5C 352.786,445.049 351.286,446.215 349.5,447C 286.5,447.667 223.5,447.667 160.5,447C 159.333,445.833 158.167,444.667 157,443.5C 156.501,437.509 156.334,431.509 156.5,425.5C 157.833,424.833 158.833,423.833 159.5,422.5C 222.762,421.504 286.095,421.171 349.5,421.5 Z"/></g>
<g><path style="opacity:1" fill="#161c13" d="M 156.5,425.5 C 156.334,431.509 156.501,437.509 157,443.5C 158.167,444.667 159.333,445.833 160.5,447C 223.5,447.667 286.5,447.667 349.5,447C 351.286,446.215 352.786,445.049 354,443.5C 354.499,437.509 354.666,431.509 354.5,425.5C 355.653,431.653 355.82,437.986 355,444.5C 354.167,446 353,447.167 351.5,448C 287.5,448.667 223.5,448.667 159.5,448C 158,447.167 156.833,446 156,444.5C 155.185,437.414 155.351,431.08 156.5,425.5 Z"/></g>
</svg>
